<mxfile host="app.diagrams.net" agent="Mozilla/5.0 (X11; Ubuntu; Linux x86_64; rv:132.0) Gecko/20100101 Firefox/132.0" version="24.8.4">
  <diagram name="Page-1" id="l4kMRyG-B6fce0zf2LIk">
    <mxGraphModel dx="880" dy="449" grid="1" gridSize="10" guides="1" tooltips="1" connect="1" arrows="1" fold="1" page="1" pageScale="1" pageWidth="850" pageHeight="1100" math="0" shadow="0">
      <root>
        <mxCell id="0" />
        <mxCell id="1" parent="0" />
        <mxCell id="5wpf3IYprhvwiry95CJq-37" style="edgeStyle=orthogonalEdgeStyle;rounded=0;orthogonalLoop=1;jettySize=auto;html=1;entryX=0;entryY=0.5;entryDx=0;entryDy=0;" edge="1" parent="1" source="NmHItM3d-zh2LZwtYzq5-1" target="5wpf3IYprhvwiry95CJq-36">
          <mxGeometry relative="1" as="geometry" />
        </mxCell>
        <mxCell id="5wpf3IYprhvwiry95CJq-39" style="edgeStyle=orthogonalEdgeStyle;rounded=0;orthogonalLoop=1;jettySize=auto;html=1;exitX=0.5;exitY=1;exitDx=0;exitDy=0;" edge="1" parent="1" source="NmHItM3d-zh2LZwtYzq5-1" target="5wpf3IYprhvwiry95CJq-19">
          <mxGeometry relative="1" as="geometry" />
        </mxCell>
        <mxCell id="5wpf3IYprhvwiry95CJq-41" style="edgeStyle=orthogonalEdgeStyle;rounded=0;orthogonalLoop=1;jettySize=auto;html=1;exitX=1;exitY=0;exitDx=0;exitDy=0;entryX=0;entryY=0.5;entryDx=0;entryDy=0;" edge="1" parent="1" source="NmHItM3d-zh2LZwtYzq5-1" target="5wpf3IYprhvwiry95CJq-40">
          <mxGeometry relative="1" as="geometry" />
        </mxCell>
        <mxCell id="NmHItM3d-zh2LZwtYzq5-1" value="&lt;div&gt;User&lt;/div&gt;" style="rounded=0;whiteSpace=wrap;html=1;" parent="1" vertex="1">
          <mxGeometry x="240" y="280" width="120" height="60" as="geometry" />
        </mxCell>
        <mxCell id="NmHItM3d-zh2LZwtYzq5-2" value="Shop" style="rounded=0;whiteSpace=wrap;html=1;" parent="1" vertex="1">
          <mxGeometry x="545" y="280" width="120" height="60" as="geometry" />
        </mxCell>
        <mxCell id="5wpf3IYprhvwiry95CJq-10" style="rounded=0;orthogonalLoop=1;jettySize=auto;html=1;exitX=0.25;exitY=0;exitDx=0;exitDy=0;entryX=0.5;entryY=1;entryDx=0;entryDy=0;" edge="1" parent="1" source="NmHItM3d-zh2LZwtYzq5-4" target="5wpf3IYprhvwiry95CJq-7">
          <mxGeometry relative="1" as="geometry" />
        </mxCell>
        <mxCell id="5wpf3IYprhvwiry95CJq-11" style="rounded=0;orthogonalLoop=1;jettySize=auto;html=1;exitX=0.5;exitY=0;exitDx=0;exitDy=0;entryX=0.5;entryY=1;entryDx=0;entryDy=0;" edge="1" parent="1" source="NmHItM3d-zh2LZwtYzq5-4" target="5wpf3IYprhvwiry95CJq-8">
          <mxGeometry relative="1" as="geometry">
            <mxPoint x="290" y="80" as="targetPoint" />
          </mxGeometry>
        </mxCell>
        <mxCell id="5wpf3IYprhvwiry95CJq-12" style="rounded=0;orthogonalLoop=1;jettySize=auto;html=1;exitX=1;exitY=0.25;exitDx=0;exitDy=0;entryX=0.5;entryY=1;entryDx=0;entryDy=0;" edge="1" parent="1" source="NmHItM3d-zh2LZwtYzq5-4" target="5wpf3IYprhvwiry95CJq-9">
          <mxGeometry relative="1" as="geometry" />
        </mxCell>
        <mxCell id="5wpf3IYprhvwiry95CJq-23" style="edgeStyle=orthogonalEdgeStyle;rounded=0;orthogonalLoop=1;jettySize=auto;html=1;" edge="1" parent="1" source="NmHItM3d-zh2LZwtYzq5-4" target="5wpf3IYprhvwiry95CJq-21">
          <mxGeometry relative="1" as="geometry" />
        </mxCell>
        <mxCell id="NmHItM3d-zh2LZwtYzq5-4" value="Donation" style="rounded=0;whiteSpace=wrap;html=1;" parent="1" vertex="1">
          <mxGeometry x="240" y="140" width="120" height="60" as="geometry" />
        </mxCell>
        <mxCell id="5wpf3IYprhvwiry95CJq-7" value="&lt;div&gt;Tier&lt;/div&gt;" style="ellipse;whiteSpace=wrap;html=1;" vertex="1" parent="1">
          <mxGeometry x="200" y="40" width="50" height="30" as="geometry" />
        </mxCell>
        <mxCell id="5wpf3IYprhvwiry95CJq-8" value="Amount" style="ellipse;whiteSpace=wrap;html=1;" vertex="1" parent="1">
          <mxGeometry x="270" y="10" width="50" height="30" as="geometry" />
        </mxCell>
        <mxCell id="5wpf3IYprhvwiry95CJq-9" value="Cause" style="ellipse;whiteSpace=wrap;html=1;" vertex="1" parent="1">
          <mxGeometry x="340" y="80" width="50" height="30" as="geometry" />
        </mxCell>
        <mxCell id="5wpf3IYprhvwiry95CJq-15" style="rounded=0;orthogonalLoop=1;jettySize=auto;html=1;exitX=0.5;exitY=0;exitDx=0;exitDy=0;entryX=0;entryY=0.5;entryDx=0;entryDy=0;" edge="1" parent="1" source="5wpf3IYprhvwiry95CJq-13" target="NmHItM3d-zh2LZwtYzq5-4">
          <mxGeometry relative="1" as="geometry" />
        </mxCell>
        <mxCell id="5wpf3IYprhvwiry95CJq-13" value="&lt;div&gt;makes&lt;/div&gt;" style="rhombus;whiteSpace=wrap;html=1;" vertex="1" parent="1">
          <mxGeometry x="100" y="190" width="80" height="70" as="geometry" />
        </mxCell>
        <mxCell id="5wpf3IYprhvwiry95CJq-14" style="rounded=0;orthogonalLoop=1;jettySize=auto;html=1;exitX=0.5;exitY=1;exitDx=0;exitDy=0;entryX=0.175;entryY=-0.017;entryDx=0;entryDy=0;entryPerimeter=0;" edge="1" parent="1" source="5wpf3IYprhvwiry95CJq-13" target="NmHItM3d-zh2LZwtYzq5-1">
          <mxGeometry relative="1" as="geometry" />
        </mxCell>
        <mxCell id="5wpf3IYprhvwiry95CJq-16" value="Delivers" style="rhombus;whiteSpace=wrap;html=1;" vertex="1" parent="1">
          <mxGeometry x="570" y="460" width="70" height="50" as="geometry" />
        </mxCell>
        <mxCell id="5wpf3IYprhvwiry95CJq-17" style="rounded=0;orthogonalLoop=1;jettySize=auto;html=1;entryX=0.1;entryY=1.05;entryDx=0;entryDy=0;exitX=0;exitY=0.5;exitDx=0;exitDy=0;entryPerimeter=0;" edge="1" parent="1" source="5wpf3IYprhvwiry95CJq-16" target="NmHItM3d-zh2LZwtYzq5-2">
          <mxGeometry relative="1" as="geometry" />
        </mxCell>
        <mxCell id="5wpf3IYprhvwiry95CJq-18" style="rounded=0;orthogonalLoop=1;jettySize=auto;html=1;exitX=0.5;exitY=1;exitDx=0;exitDy=0;" edge="1" parent="1" source="5wpf3IYprhvwiry95CJq-19">
          <mxGeometry relative="1" as="geometry">
            <mxPoint x="320" y="510" as="targetPoint" />
          </mxGeometry>
        </mxCell>
        <mxCell id="5wpf3IYprhvwiry95CJq-19" value="&lt;div&gt;makes&lt;/div&gt;" style="rhombus;whiteSpace=wrap;html=1;" vertex="1" parent="1">
          <mxGeometry x="300" y="390" width="80" height="70" as="geometry" />
        </mxCell>
        <mxCell id="5wpf3IYprhvwiry95CJq-21" value="" style="shape=cylinder3;whiteSpace=wrap;html=1;boundedLbl=1;backgroundOutline=1;size=15;" vertex="1" parent="1">
          <mxGeometry x="680" y="50" width="90" height="110" as="geometry" />
        </mxCell>
        <mxCell id="5wpf3IYprhvwiry95CJq-22" value="Database" style="text;html=1;align=center;verticalAlign=middle;whiteSpace=wrap;rounded=0;" vertex="1" parent="1">
          <mxGeometry x="680" y="20" width="60" height="30" as="geometry" />
        </mxCell>
        <mxCell id="5wpf3IYprhvwiry95CJq-24" value="" style="group" vertex="1" connectable="0" parent="1">
          <mxGeometry x="125" y="480" width="200" height="230" as="geometry" />
        </mxCell>
        <mxCell id="5wpf3IYprhvwiry95CJq-5" value="" style="group" vertex="1" connectable="0" parent="5wpf3IYprhvwiry95CJq-24">
          <mxGeometry y="30" width="200" height="200" as="geometry" />
        </mxCell>
        <mxCell id="5wpf3IYprhvwiry95CJq-3" value="" style="whiteSpace=wrap;html=1;aspect=fixed;" vertex="1" parent="5wpf3IYprhvwiry95CJq-5">
          <mxGeometry width="200" height="200" as="geometry" />
        </mxCell>
        <mxCell id="5wpf3IYprhvwiry95CJq-4" value="" style="group" vertex="1" connectable="0" parent="5wpf3IYprhvwiry95CJq-5">
          <mxGeometry x="30" y="50" width="140" height="110" as="geometry" />
        </mxCell>
        <mxCell id="5wpf3IYprhvwiry95CJq-25" style="edgeStyle=orthogonalEdgeStyle;rounded=0;orthogonalLoop=1;jettySize=auto;html=1;entryX=0.5;entryY=1;entryDx=0;entryDy=0;exitX=0.36;exitY=0.85;exitDx=0;exitDy=0;exitPerimeter=0;" edge="1" parent="5wpf3IYprhvwiry95CJq-4" source="5wpf3IYprhvwiry95CJq-2" target="5wpf3IYprhvwiry95CJq-1">
          <mxGeometry relative="1" as="geometry" />
        </mxCell>
        <mxCell id="5wpf3IYprhvwiry95CJq-26" style="edgeStyle=orthogonalEdgeStyle;rounded=0;orthogonalLoop=1;jettySize=auto;html=1;" edge="1" parent="5wpf3IYprhvwiry95CJq-4" source="NmHItM3d-zh2LZwtYzq5-3">
          <mxGeometry relative="1" as="geometry">
            <mxPoint x="70" y="20" as="targetPoint" />
          </mxGeometry>
        </mxCell>
        <mxCell id="NmHItM3d-zh2LZwtYzq5-3" value="Products" style="rounded=0;whiteSpace=wrap;html=1;" parent="5wpf3IYprhvwiry95CJq-4" vertex="1">
          <mxGeometry x="10" y="50" width="120" height="60" as="geometry" />
        </mxCell>
        <mxCell id="5wpf3IYprhvwiry95CJq-1" value="Tier" style="ellipse;whiteSpace=wrap;html=1;" vertex="1" parent="5wpf3IYprhvwiry95CJq-4">
          <mxGeometry width="50" height="20" as="geometry" />
        </mxCell>
        <mxCell id="5wpf3IYprhvwiry95CJq-2" value="Amount" style="ellipse;whiteSpace=wrap;html=1;" vertex="1" parent="5wpf3IYprhvwiry95CJq-4">
          <mxGeometry x="90" width="50" height="20" as="geometry" />
        </mxCell>
        <mxCell id="5wpf3IYprhvwiry95CJq-6" value="Purchse Checkout" style="text;html=1;align=center;verticalAlign=middle;whiteSpace=wrap;rounded=0;" vertex="1" parent="5wpf3IYprhvwiry95CJq-24">
          <mxGeometry width="120" height="30" as="geometry" />
        </mxCell>
        <mxCell id="5wpf3IYprhvwiry95CJq-29" style="edgeStyle=orthogonalEdgeStyle;rounded=0;orthogonalLoop=1;jettySize=auto;html=1;entryX=0.5;entryY=1;entryDx=0;entryDy=0;" edge="1" parent="1" source="5wpf3IYprhvwiry95CJq-27" target="5wpf3IYprhvwiry95CJq-28">
          <mxGeometry relative="1" as="geometry" />
        </mxCell>
        <mxCell id="5wpf3IYprhvwiry95CJq-31" style="edgeStyle=orthogonalEdgeStyle;rounded=0;orthogonalLoop=1;jettySize=auto;html=1;entryX=0.5;entryY=0;entryDx=0;entryDy=0;exitX=0;exitY=1;exitDx=0;exitDy=0;" edge="1" parent="1" source="5wpf3IYprhvwiry95CJq-27" target="5wpf3IYprhvwiry95CJq-16">
          <mxGeometry relative="1" as="geometry" />
        </mxCell>
        <mxCell id="5wpf3IYprhvwiry95CJq-27" value="&lt;div&gt;Vendor&lt;/div&gt;&lt;div&gt;(user)&lt;br&gt;&lt;/div&gt;" style="rounded=0;whiteSpace=wrap;html=1;" vertex="1" parent="1">
          <mxGeometry x="720" y="340" width="120" height="60" as="geometry" />
        </mxCell>
        <mxCell id="5wpf3IYprhvwiry95CJq-30" style="edgeStyle=orthogonalEdgeStyle;rounded=0;orthogonalLoop=1;jettySize=auto;html=1;exitX=0.5;exitY=0;exitDx=0;exitDy=0;" edge="1" parent="1" source="5wpf3IYprhvwiry95CJq-28" target="5wpf3IYprhvwiry95CJq-21">
          <mxGeometry relative="1" as="geometry" />
        </mxCell>
        <mxCell id="5wpf3IYprhvwiry95CJq-28" value="&lt;div&gt;upload &lt;br&gt;&lt;/div&gt;&lt;div&gt;product&lt;br&gt;&lt;/div&gt;" style="rhombus;whiteSpace=wrap;html=1;" vertex="1" parent="1">
          <mxGeometry x="680" y="210" width="80" height="70" as="geometry" />
        </mxCell>
        <mxCell id="5wpf3IYprhvwiry95CJq-35" style="edgeStyle=orthogonalEdgeStyle;rounded=0;orthogonalLoop=1;jettySize=auto;html=1;entryX=0.5;entryY=1;entryDx=0;entryDy=0;" edge="1" parent="1" source="5wpf3IYprhvwiry95CJq-32" target="5wpf3IYprhvwiry95CJq-27">
          <mxGeometry relative="1" as="geometry" />
        </mxCell>
        <mxCell id="5wpf3IYprhvwiry95CJq-32" value="&lt;div&gt;order&lt;/div&gt;" style="rhombus;whiteSpace=wrap;html=1;" vertex="1" parent="1">
          <mxGeometry x="600" y="650" width="80" height="40" as="geometry" />
        </mxCell>
        <mxCell id="5wpf3IYprhvwiry95CJq-34" style="edgeStyle=orthogonalEdgeStyle;rounded=0;orthogonalLoop=1;jettySize=auto;html=1;entryX=0;entryY=0.5;entryDx=0;entryDy=0;" edge="1" parent="1" source="5wpf3IYprhvwiry95CJq-3" target="5wpf3IYprhvwiry95CJq-32">
          <mxGeometry relative="1" as="geometry" />
        </mxCell>
        <mxCell id="5wpf3IYprhvwiry95CJq-38" style="edgeStyle=orthogonalEdgeStyle;rounded=0;orthogonalLoop=1;jettySize=auto;html=1;exitX=1;exitY=0.5;exitDx=0;exitDy=0;entryX=0;entryY=0.5;entryDx=0;entryDy=0;" edge="1" parent="1" source="5wpf3IYprhvwiry95CJq-36" target="NmHItM3d-zh2LZwtYzq5-2">
          <mxGeometry relative="1" as="geometry" />
        </mxCell>
        <mxCell id="5wpf3IYprhvwiry95CJq-36" value="pickup" style="rhombus;whiteSpace=wrap;html=1;" vertex="1" parent="1">
          <mxGeometry x="420" y="285" width="80" height="50" as="geometry" />
        </mxCell>
        <mxCell id="5wpf3IYprhvwiry95CJq-40" value="&lt;div&gt;Search&lt;/div&gt;&lt;div&gt;product&lt;br&gt;&lt;/div&gt;" style="rhombus;whiteSpace=wrap;html=1;" vertex="1" parent="1">
          <mxGeometry x="420" y="210" width="80" height="50" as="geometry" />
        </mxCell>
        <mxCell id="5wpf3IYprhvwiry95CJq-42" style="edgeStyle=orthogonalEdgeStyle;rounded=0;orthogonalLoop=1;jettySize=auto;html=1;exitX=1;exitY=0.5;exitDx=0;exitDy=0;entryX=0;entryY=0;entryDx=0;entryDy=75;entryPerimeter=0;" edge="1" parent="1" source="5wpf3IYprhvwiry95CJq-40" target="5wpf3IYprhvwiry95CJq-21">
          <mxGeometry relative="1" as="geometry" />
        </mxCell>
        <mxCell id="5wpf3IYprhvwiry95CJq-43" value="&lt;font color=&quot;#7ea6e0&quot; style=&quot;font-size: 18px;&quot;&gt;1&lt;/font&gt;" style="text;html=1;align=center;verticalAlign=middle;whiteSpace=wrap;rounded=0;" vertex="1" parent="1">
          <mxGeometry x="770" y="230" width="60" height="30" as="geometry" />
        </mxCell>
        <mxCell id="5wpf3IYprhvwiry95CJq-44" value="&lt;font style=&quot;font-size: 18px;&quot; color=&quot;#7ea6e0&quot;&gt;2&lt;/font&gt;" style="text;html=1;align=center;verticalAlign=middle;whiteSpace=wrap;rounded=0;" vertex="1" parent="1">
          <mxGeometry x="510" y="200" width="60" height="30" as="geometry" />
        </mxCell>
        <mxCell id="5wpf3IYprhvwiry95CJq-45" value="&lt;font style=&quot;font-size: 18px;&quot; color=&quot;#7ea6e0&quot;&gt;3&lt;/font&gt;" style="text;html=1;align=center;verticalAlign=middle;whiteSpace=wrap;rounded=0;" vertex="1" parent="1">
          <mxGeometry x="230" y="410" width="60" height="30" as="geometry" />
        </mxCell>
        <mxCell id="5wpf3IYprhvwiry95CJq-46" value="&lt;font style=&quot;font-size: 18px;&quot; color=&quot;#7ea6e0&quot;&gt;4&lt;/font&gt;" style="text;html=1;align=center;verticalAlign=middle;whiteSpace=wrap;rounded=0;" vertex="1" parent="1">
          <mxGeometry x="610" y="700" width="60" height="30" as="geometry" />
        </mxCell>
        <mxCell id="5wpf3IYprhvwiry95CJq-47" value="&lt;font style=&quot;font-size: 18px;&quot; color=&quot;#7ea6e0&quot;&gt;5&lt;/font&gt;" style="text;html=1;align=center;verticalAlign=middle;whiteSpace=wrap;rounded=0;" vertex="1" parent="1">
          <mxGeometry x="575" y="510" width="60" height="30" as="geometry" />
        </mxCell>
        <mxCell id="5wpf3IYprhvwiry95CJq-48" value="&lt;font style=&quot;font-size: 18px;&quot; color=&quot;#7ea6e0&quot;&gt;6&lt;/font&gt;" style="text;html=1;align=center;verticalAlign=middle;whiteSpace=wrap;rounded=0;" vertex="1" parent="1">
          <mxGeometry x="430" y="340" width="60" height="30" as="geometry" />
        </mxCell>
        <mxCell id="5wpf3IYprhvwiry95CJq-49" value="&lt;font color=&quot;#33ff33&quot; style=&quot;font-size: 18px;&quot;&gt;1&lt;/font&gt;" style="text;html=1;align=center;verticalAlign=middle;whiteSpace=wrap;rounded=0;" vertex="1" parent="1">
          <mxGeometry x="50" y="210" width="60" height="30" as="geometry" />
        </mxCell>
        <mxCell id="5wpf3IYprhvwiry95CJq-50" value="&lt;font style=&quot;font-size: 18px;&quot; color=&quot;#33ff33&quot;&gt;2&lt;/font&gt;" style="text;html=1;align=center;verticalAlign=middle;whiteSpace=wrap;rounded=0;" vertex="1" parent="1">
          <mxGeometry x="530" y="70" width="60" height="30" as="geometry" />
        </mxCell>
      </root>
    </mxGraphModel>
  </diagram>
</mxfile>
